<?xml version="1.0" encoding="UTF-8" standalone="no"?>
<svg
   width="906mm"
   height="603mm"
   viewBox="0 0 906 603"
   version="1.1"
   preserveAspectRatio="xMidYMid meet"
   id="svg1"
   sodipodi:docname="boxv2.svg"
   inkscape:version="1.4 (86a8ad7, 2024-10-11)"
   xmlns:inkscape="http://www.inkscape.org/namespaces/inkscape"
   xmlns:sodipodi="http://sodipodi.sourceforge.net/DTD/sodipodi-0.dtd"
   xmlns="http://www.w3.org/2000/svg"
   xmlns:svg="http://www.w3.org/2000/svg">
  <defs
     id="defs1" />
  <sodipodi:namedview
     id="namedview1"
     pagecolor="#ffffff"
     bordercolor="#000000"
     borderopacity="0.25"
     inkscape:showpageshadow="2"
     inkscape:pageopacity="0.0"
     inkscape:pagecheckerboard="0"
     inkscape:deskcolor="#d1d1d1"
     inkscape:document-units="mm"
     inkscape:zoom="0.25"
     inkscape:cx="1946"
     inkscape:cy="946"
     inkscape:window-width="1920"
     inkscape:window-height="1009"
     inkscape:window-x="-8"
     inkscape:window-y="-8"
     inkscape:window-maximized="1"
     inkscape:current-layer="svgGroup" />
  <g
     id="svgGroup"
     stroke-linecap="round"
     fill-rule="evenodd"
     font-size="9pt"
     stroke="#000"
     stroke-width="0.25mm"
     fill="none"
     style="stroke:#000;stroke-width:0.25mm;fill:none">
    <path
       d="M 0 303 L 0 326.438 L 3 326.438 L 3 343.313 L 0 343.313 L 0 360.188 L 3 360.188 L 3 377.063 L 0 377.063 L 0 393.938 L 3 393.938 L 3 410.813 L 0 410.813 L 0 427.688 L 3 427.688 L 3 444.563 L 0 444.563 L 0 461.438 L 3 461.438 L 3 478.313 L 0 478.313 L 0 495.188 L 3 495.188 L 3 512.063 L 0 512.063 L 0 528.938 L 3 528.938 L 3 545.813 L 0 545.813 L 0 562.688 L 3 562.688 L 3 579.563 L 0 579.563 L 0 603 L 23.438 603 L 23.438 600 L 40.313 600 L 40.313 603 L 57.188 603 L 57.188 600 L 74.063 600 L 74.063 603 L 90.938 603 L 90.938 600 L 107.813 600 L 107.813 603 L 124.688 603 L 124.688 600 L 141.563 600 L 141.563 603 L 158.438 603 L 158.438 600 L 175.313 600 L 175.313 603 L 192.188 603 L 192.188 600 L 209.063 600 L 209.063 603 L 225.938 603 L 225.938 600 L 242.813 600 L 242.813 603 L 259.688 603 L 259.688 600 L 276.563 600 L 276.563 603 L 300 603 L 300 579.563 L 297 579.563 L 297 562.688 L 300 562.688 L 300 545.813 L 297 545.813 L 297 528.938 L 300 528.938 L 300 512.063 L 297 512.063 L 297 495.188 L 300 495.188 L 300 478.313 L 297 478.313 L 297 461.438 L 300 461.438 L 300 444.563 L 297 444.563 L 297 427.688 L 300 427.688 L 300 410.813 L 297 410.813 L 297 393.938 L 300 393.938 L 300 377.063 L 297 377.063 L 297 360.188 L 300 360.188 L 300 343.313 L 297 343.313 L 297 326.438 L 300 326.438 L 300 303 L 276.563 303 L 276.563 306 L 259.688 306 L 259.688 303 L 242.813 303 L 242.813 306 L 225.938 306 L 225.938 303 L 209.063 303 L 209.063 306 L 192.188 306 L 192.188 303 L 175.313 303 L 175.313 306 L 158.438 306 L 158.438 303 L 141.563 303 L 141.563 306 L 124.688 306 L 124.688 303 L 107.813 303 L 107.813 306 L 90.938 306 L 90.938 303 L 74.063 303 L 74.063 306 L 57.188 306 L 57.188 303 L 40.313 303 L 40.313 306 L 23.438 306 L 23.438 303 L 0 303 Z"
       id="front_outsideCutPath"
       stroke="#FF0000"
       stroke-width="0.1"
       style="stroke:#FF0000;stroke-width:0.1"
       vector-effect="non-scaling-stroke" />
    <path
       d="M 306 303 L 306 326.438 L 303 326.438 L 303 343.313 L 306 343.313 L 306 360.188 L 303 360.188 L 303 377.063 L 306 377.063 L 306 393.938 L 303 393.938 L 303 410.813 L 306 410.813 L 306 427.688 L 303 427.688 L 303 444.563 L 306 444.563 L 306 461.438 L 303 461.438 L 303 478.313 L 306 478.313 L 306 495.188 L 303 495.188 L 303 512.063 L 306 512.063 L 306 528.938 L 303 528.938 L 303 545.813 L 306 545.813 L 306 562.688 L 303 562.688 L 303 579.563 L 306 579.563 L 306 603 L 326.438 603 L 326.438 600 L 343.313 600 L 343.313 603 L 360.188 603 L 360.188 600 L 377.063 600 L 377.063 603 L 393.938 603 L 393.938 600 L 410.813 600 L 410.813 603 L 427.688 603 L 427.688 600 L 444.563 600 L 444.563 603 L 461.438 603 L 461.438 600 L 478.313 600 L 478.313 603 L 495.188 603 L 495.188 600 L 512.063 600 L 512.063 603 L 528.938 603 L 528.938 600 L 545.813 600 L 545.813 603 L 562.688 603 L 562.688 600 L 579.563 600 L 579.563 603 L 600 603 L 600 579.563 L 603 579.563 L 603 562.688 L 600 562.688 L 600 545.813 L 603 545.813 L 603 528.938 L 600 528.938 L 600 512.063 L 603 512.063 L 603 495.188 L 600 495.188 L 600 478.313 L 603 478.313 L 603 461.438 L 600 461.438 L 600 444.563 L 603 444.563 L 603 427.688 L 600 427.688 L 600 410.813 L 603 410.813 L 603 393.938 L 600 393.938 L 600 377.063 L 603 377.063 L 603 360.188 L 600 360.188 L 600 343.313 L 603 343.313 L 603 326.438 L 600 326.438 L 600 303 L 579.563 303 L 579.563 306 L 562.688 306 L 562.688 303 L 545.813 303 L 545.813 306 L 528.938 306 L 528.938 303 L 512.063 303 L 512.063 306 L 495.188 306 L 495.188 303 L 478.313 303 L 478.313 306 L 461.438 306 L 461.438 303 L 444.563 303 L 444.563 306 L 427.688 306 L 427.688 303 L 410.813 303 L 410.813 306 L 393.938 306 L 393.938 303 L 377.063 303 L 377.063 306 L 360.188 306 L 360.188 303 L 343.313 303 L 343.313 306 L 326.438 306 L 326.438 303 L 306 303 Z"
       id="left_outsideCutPath"
       stroke="#FF0000"
       stroke-width="0.1"
       style="stroke:#FF0000;stroke-width:0.1"
       vector-effect="non-scaling-stroke" />
    <path
       d="M 609 306 L 609 326.438 L 606 326.438 L 606 343.313 L 609 343.313 L 609 360.188 L 606 360.188 L 606 377.063 L 609 377.063 L 609 393.938 L 606 393.938 L 606 410.813 L 609 410.813 L 609 427.688 L 606 427.688 L 606 444.563 L 609 444.563 L 609 461.438 L 606 461.438 L 606 478.313 L 609 478.313 L 609 495.188 L 606 495.188 L 606 512.063 L 609 512.063 L 609 528.938 L 606 528.938 L 606 545.813 L 609 545.813 L 609 562.688 L 606 562.688 L 606 579.563 L 609 579.563 L 609 600 L 629.438 600 L 629.438 603 L 646.313 603 L 646.313 600 L 663.188 600 L 663.188 603 L 680.063 603 L 680.063 600 L 696.938 600 L 696.938 603 L 713.813 603 L 713.813 600 L 730.688 600 L 730.688 603 L 747.563 603 L 747.563 600 L 764.438 600 L 764.438 603 L 781.313 603 L 781.313 600 L 798.188 600 L 798.188 603 L 815.063 603 L 815.063 600 L 831.938 600 L 831.938 603 L 848.813 603 L 848.813 600 L 865.688 600 L 865.688 603 L 882.563 603 L 882.563 600 L 903 600 L 903 579.563 L 906 579.563 L 906 562.688 L 903 562.688 L 903 545.813 L 906 545.813 L 906 528.938 L 903 528.938 L 903 512.063 L 906 512.063 L 906 495.188 L 903 495.188 L 903 478.313 L 906 478.313 L 906 461.438 L 903 461.438 L 903 444.563 L 906 444.563 L 906 427.688 L 903 427.688 L 903 410.813 L 906 410.813 L 906 393.938 L 903 393.938 L 903 377.063 L 906 377.063 L 906 360.188 L 903 360.188 L 903 343.313 L 906 343.313 L 906 326.438 L 903 326.438 L 903 306 L 882.563 306 L 882.563 303 L 865.688 303 L 865.688 306 L 848.813 306 L 848.813 303 L 831.938 303 L 831.938 306 L 815.063 306 L 815.063 303 L 798.188 303 L 798.188 306 L 781.313 306 L 781.313 303 L 764.438 303 L 764.438 306 L 747.563 306 L 747.563 303 L 730.688 303 L 730.688 306 L 713.813 306 L 713.813 303 L 696.938 303 L 696.938 306 L 680.063 306 L 680.063 303 L 663.188 303 L 663.188 306 L 646.313 306 L 646.313 303 L 629.438 303 L 629.438 306 L 609 306 Z"
       id="top_outsideCutPath"
       stroke="#FF0000"
       stroke-width="0.1"
       style="stroke:#FF0000;stroke-width:0.1"
       vector-effect="non-scaling-stroke" />
    <path
       d="M 0 0 L 0 23.438 L 3 23.438 L 3 40.313 L 0 40.313 L 0 57.188 L 3 57.188 L 3 74.063 L 0 74.063 L 0 90.938 L 3 90.938 L 3 107.813 L 0 107.813 L 0 124.688 L 3 124.688 L 3 141.563 L 0 141.563 L 0 158.438 L 3 158.438 L 3 175.313 L 0 175.313 L 0 192.188 L 3 192.188 L 3 209.063 L 0 209.063 L 0 225.938 L 3 225.938 L 3 242.813 L 0 242.813 L 0 259.688 L 3 259.688 L 3 276.563 L 0 276.563 L 0 300 L 23.438 300 L 23.438 297 L 40.313 297 L 40.313 300 L 57.188 300 L 57.188 297 L 74.063 297 L 74.063 300 L 90.938 300 L 90.938 297 L 107.813 297 L 107.813 300 L 124.688 300 L 124.688 297 L 141.563 297 L 141.563 300 L 158.438 300 L 158.438 297 L 175.313 297 L 175.313 300 L 192.188 300 L 192.188 297 L 209.063 297 L 209.063 300 L 225.938 300 L 225.938 297 L 242.813 297 L 242.813 300 L 259.688 300 L 259.688 297 L 276.563 297 L 276.563 300 L 300 300 L 300 276.563 L 297 276.563 L 297 259.688 L 300 259.688 L 300 242.813 L 297 242.813 L 297 225.938 L 300 225.938 L 300 209.063 L 297 209.063 L 297 192.188 L 300 192.188 L 300 175.313 L 297 175.313 L 297 158.438 L 300 158.438 L 300 141.563 L 297 141.563 L 297 124.688 L 300 124.688 L 300 107.813 L 297 107.813 L 297 90.938 L 300 90.938 L 300 74.063 L 297 74.063 L 297 57.188 L 300 57.188 L 300 40.313 L 297 40.313 L 297 23.438 L 300 23.438 L 300 0 L 276.563 0 L 276.563 3 L 259.688 3 L 259.688 0 L 242.813 0 L 242.813 3 L 225.938 3 L 225.938 0 L 209.063 0 L 209.063 3 L 192.188 3 L 192.188 0 L 175.313 0 L 175.313 3 L 158.438 3 L 158.438 0 L 141.563 0 L 141.563 3 L 124.688 3 L 124.688 0 L 107.813 0 L 107.813 3 L 90.938 3 L 90.938 0 L 74.063 0 L 74.063 3 L 57.188 3 L 57.188 0 L 40.313 0 L 40.313 3 L 23.438 3 L 23.438 0 L 0 0 Z"
       id="back_outsideCutPath"
       stroke="#FF0000"
       stroke-width="0.1"
       style="stroke:#FF0000;stroke-width:0.1"
       vector-effect="non-scaling-stroke" />
    <path
       d="M 306 0 L 306 23.438 L 303 23.438 L 303 40.313 L 306 40.313 L 306 57.188 L 303 57.188 L 303 74.063 L 306 74.063 L 306 90.938 L 303 90.938 L 303 107.813 L 306 107.813 L 306 124.688 L 303 124.688 L 303 141.563 L 306 141.563 L 306 158.438 L 303 158.438 L 303 175.313 L 306 175.313 L 306 192.188 L 303 192.188 L 303 209.063 L 306 209.063 L 306 225.938 L 303 225.938 L 303 242.813 L 306 242.813 L 306 259.688 L 303 259.688 L 303 276.563 L 306 276.563 L 306 300 L 326.438 300 L 326.438 297 L 343.313 297 L 343.313 300 L 360.188 300 L 360.188 297 L 377.063 297 L 377.063 300 L 393.938 300 L 393.938 297 L 410.813 297 L 410.813 300 L 427.688 300 L 427.688 297 L 444.563 297 L 444.563 300 L 461.438 300 L 461.438 297 L 478.313 297 L 478.313 300 L 495.188 300 L 495.188 297 L 512.063 297 L 512.063 300 L 528.938 300 L 528.938 297 L 545.813 297 L 545.813 300 L 562.688 300 L 562.688 297 L 579.563 297 L 579.563 300 L 600 300 L 600 276.563 L 603 276.563 L 603 259.688 L 600 259.688 L 600 242.813 L 603 242.813 L 603 225.938 L 600 225.938 L 600 209.063 L 603 209.063 L 603 192.188 L 600 192.188 L 600 175.313 L 603 175.313 L 603 158.438 L 600 158.438 L 600 141.563 L 603 141.563 L 603 124.688 L 600 124.688 L 600 107.813 L 603 107.813 L 603 90.938 L 600 90.938 L 600 74.063 L 603 74.063 L 603 57.188 L 600 57.188 L 600 40.313 L 603 40.313 L 603 23.438 L 600 23.438 L 600 0 L 579.563 0 L 579.563 3 L 562.688 3 L 562.688 0 L 545.813 0 L 545.813 3 L 528.938 3 L 528.938 0 L 512.063 0 L 512.063 3 L 495.188 3 L 495.188 0 L 478.313 0 L 478.313 3 L 461.438 3 L 461.438 0 L 444.563 0 L 444.563 3 L 427.688 3 L 427.688 0 L 410.813 0 L 410.813 3 L 393.938 3 L 393.938 0 L 377.063 0 L 377.063 3 L 360.188 3 L 360.188 0 L 343.313 0 L 343.313 3 L 326.438 3 L 326.438 0 L 306 0 Z"
       id="right_outsideCutPath"
       stroke="#FF0000"
       stroke-width="0.1"
       style="stroke:#FF0000;stroke-width:0.1"
       vector-effect="non-scaling-stroke" />
    <path
       d="M 609 3 L 609 23.438 L 606 23.438 L 606 40.313 L 609 40.313 L 609 57.188 L 606 57.188 L 606 74.063 L 609 74.063 L 609 90.938 L 606 90.938 L 606 107.813 L 609 107.813 L 609 124.688 L 606 124.688 L 606 141.563 L 609 141.563 L 609 158.438 L 606 158.438 L 606 175.313 L 609 175.313 L 609 192.188 L 606 192.188 L 606 209.063 L 609 209.063 L 609 225.938 L 606 225.938 L 606 242.813 L 609 242.813 L 609 259.688 L 606 259.688 L 606 276.563 L 609 276.563 L 609 297 L 629.438 297 L 629.438 300 L 646.313 300 L 646.313 297 L 663.188 297 L 663.188 300 L 680.063 300 L 680.063 297 L 696.938 297 L 696.938 300 L 713.813 300 L 713.813 297 L 730.688 297 L 730.688 300 L 747.563 300 L 747.563 297 L 764.438 297 L 764.438 300 L 781.313 300 L 781.313 297 L 798.188 297 L 798.188 300 L 815.063 300 L 815.063 297 L 831.938 297 L 831.938 300 L 848.813 300 L 848.813 297 L 865.688 297 L 865.688 300 L 882.563 300 L 882.563 297 L 903 297 L 903 276.563 L 906 276.563 L 906 259.688 L 903 259.688 L 903 242.813 L 906 242.813 L 906 225.938 L 903 225.938 L 903 209.063 L 906 209.063 L 906 192.188 L 903 192.188 L 903 175.313 L 906 175.313 L 906 158.438 L 903 158.438 L 903 141.563 L 906 141.563 L 906 124.688 L 903 124.688 L 903 107.813 L 906 107.813 L 906 90.938 L 903 90.938 L 903 74.063 L 906 74.063 L 906 57.188 L 903 57.188 L 903 40.313 L 906 40.313 L 906 23.438 L 903 23.438 L 903 3 L 882.563 3 L 882.563 0 L 865.688 0 L 865.688 3 L 848.813 3 L 848.813 0 L 831.938 0 L 831.938 3 L 815.063 3 L 815.063 0 L 798.188 0 L 798.188 3 L 781.313 3 L 781.313 0 L 764.438 0 L 764.438 3 L 747.563 3 L 747.563 0 L 730.688 0 L 730.688 3 L 713.813 3 L 713.813 0 L 696.938 0 L 696.938 3 L 680.063 3 L 680.063 0 L 663.188 0 L 663.188 3 L 646.313 3 L 646.313 0 L 629.438 0 L 629.438 3 L 609 3 Z"
       id="bottom_outsideCutPath"
       stroke="#FF0000"
       stroke-width="0.1"
       style="stroke:#FF0000;stroke-width:0.1"
       vector-effect="non-scaling-stroke" />
  </g>
  <circle
     style="vector-effect:non-scaling-stroke;fill:none;stroke:#000000;stroke-width:0.26458333;-inkscape-stroke:hairline;stroke-dasharray:none"
     id="path1-8"
     cx="199.88499"
     cy="444.88501"
     r="7.8850002" />
  <circle
     style="vector-effect:non-scaling-stroke;fill:none;stroke:#000000;stroke-width:0.26458333;-inkscape-stroke:hairline;stroke-dasharray:none"
     id="path1"
     cx="149.88499"
     cy="444.88501"
     r="7.8850002" />
  <circle
     style="vector-effect:non-scaling-stroke;fill:none;stroke:#000000;stroke-width:0.26458333;-inkscape-stroke:hairline;stroke-dasharray:none"
     id="path1-8-5"
     cx="104.885"
     cy="444.88501"
     r="7.8850002" />
  <rect
     style="vector-effect:non-scaling-stroke;fill:none;stroke:#000000;stroke-width:0.26458333;-inkscape-stroke:hairline;stroke-dasharray:none"
     id="rect2"
     width="40"
     height="45"
     x="130"
     y="550"
     rx="4.2743585e-16" />
  <rect
     style="vector-effect:non-scaling-stroke;fill:none;stroke:#000000;stroke-width:0.264583;stroke-dasharray:none;-inkscape-stroke:hairline"
     id="rect2-1"
     width="60"
     height="60"
     x="726"
     y="423"
     rx="4.2743585e-16" />
  <rect
     style="vector-effect:non-scaling-stroke;fill:none;stroke:#000000;stroke-width:0.264583;stroke-dasharray:none;-inkscape-stroke:hairline"
     id="rect2-1-7"
     width="55"
     height="30"
     x="728.5"
     y="358"
     rx="4.2743585e-16" />
  <rect
     style="vector-effect:non-scaling-stroke;fill:none;stroke:#000000;stroke-width:0.264583;stroke-dasharray:none;-inkscape-stroke:hairline"
     id="rect2-1-7-2"
     width="10"
     height="30"
     x="841"
     y="438"
     rx="4.2743585e-16" />
  <path
     style="vector-effect:non-scaling-stroke;fill:none;stroke:#000000;stroke-width:0.264583;stroke-dasharray:none;-inkscape-stroke:hairline"
     d="m 353.00377,363.00833 19.99464,-30.00748 h 160.00058 l 19.9998,29.99922 V 572.99965 H 352.99861 v -210.00167 0"
     id="path7" />
  <path
     style="vector-effect:non-scaling-stroke;fill:none;stroke:#000000;stroke-width:0.264583;stroke-dasharray:none;-inkscape-stroke:hairline"
     d="M 353.00377,363.0073 Z"
     id="path9" />
  <path
     style="vector-effect:non-scaling-stroke;fill:none;stroke:#000000;stroke-width:0.264583;stroke-dasharray:none;-inkscape-stroke:hairline"
     d="m 353.01099,363.00007 -0.0124,0.0124"
     id="path10" />
  <rect
     style="vector-effect:non-scaling-stroke;fill:none;stroke:#000000;stroke-width:0.264583;stroke-dasharray:none;-inkscape-stroke:hairline"
     id="rect10"
     width="77"
     height="70"
     x="414.5"
     y="130"
     rx="4.2743585e-16" />
  <circle
     style="vector-effect:non-scaling-stroke;fill:none;stroke:#000000;stroke-width:0.264583;stroke-dasharray:none;-inkscape-stroke:hairline"
     id="path11"
     cx="452"
     cy="227.5"
     r="2.5" />
  <rect
     style="vector-effect:non-scaling-stroke;fill:none;stroke:#000000;stroke-width:0.264583;stroke-dasharray:none;-inkscape-stroke:hairline"
     id="rect10-1"
     width="10"
     height="35"
     x="448"
     y="259"
     rx="4.2743585e-16" />
  <circle
     style="vector-effect:non-scaling-stroke;fill:none;stroke:#000000;stroke-width:0.264583;stroke-dasharray:none;-inkscape-stroke:hairline"
     id="path11-7"
     cx="385.35074"
     cy="241.73007"
     r="3.5" />
  <rect
     style="vector-effect:non-scaling-stroke;fill:none;stroke:#000000;stroke-width:0.264583;stroke-dasharray:none;-inkscape-stroke:hairline"
     id="rect11"
     width="5"
     height="5"
     x="575.23633"
     y="281.92072"
     rx="4.2743585e-16" />
</svg>
